<?xml version="1.0" standalone="no"?>
<!DOCTYPE svg PUBLIC "-//W3C//DTD SVG 20010904//EN"
 "http://www.w3.org/TR/2001/REC-SVG-20010904/DTD/svg10.dtd">
<svg version="1.0" xmlns="http://www.w3.org/2000/svg"
 width="32.000000pt" height="32.000000pt" viewBox="0 0 32.000000 32.000000"
 preserveAspectRatio="xMidYMid meet">

<g transform="translate(0.000000,32.000000) scale(0.100000,-0.100000)"
fill="#000000" stroke="none">
<path d="M116 264 c-9 -8 -16 -26 -16 -40 0 -15 -6 -24 -16 -24 -8 0 -12 -4
-9 -10 3 -5 15 -10 26 -10 10 0 19 -4 19 -10 0 -5 12 -10 26 -10 21 0 25 -4
22 -22 -2 -15 -9 -22 -21 -22 -18 2 -18 1 0 -18 10 -11 17 -22 16 -24 -8 -12
-1 -13 17 -4 18 10 20 8 20 -25 0 -39 0 -39 33 -24 l25 11 -30 27 c-29 26 -29
26 -16 76 7 28 17 53 23 57 6 5 3 8 -7 8 -13 0 -18 8 -18 28 0 15 -5 33 -12
40 -17 17 -64 15 -82 -4z"/>
<path d="M83 50 l-22 -17 25 -12 c36 -16 42 -14 36 14 -6 34 -13 36 -39 15z"/>
<path d="M152 20 c0 -14 2 -19 5 -12 2 6 2 18 0 25 -3 6 -5 1 -5 -13z"/>
</g>
</svg>
